<?xml version="1.0" encoding="UTF-8" standalone="no"?>
<svg
   viewBox="0 0 32 32"
   fill="none"
   version="1.1"
   id="svg2"
   sodipodi:docname="cancel-white.svg"
   inkscape:version="1.4.3 (0d15f75, 2025-12-25)"
   xmlns:inkscape="http://www.inkscape.org/namespaces/inkscape"
   xmlns:sodipodi="http://sodipodi.sourceforge.net/DTD/sodipodi-0.dtd"
   xmlns="http://www.w3.org/2000/svg"
   xmlns:svg="http://www.w3.org/2000/svg">
  <defs
     id="defs2" />
  <sodipodi:namedview
     id="namedview2"
     pagecolor="#505050"
     bordercolor="#eeeeee"
     borderopacity="1"
     inkscape:showpageshadow="0"
     inkscape:pageopacity="0"
     inkscape:pagecheckerboard="0"
     inkscape:deskcolor="#505050"
     inkscape:zoom="25.46875"
     inkscape:cx="16"
     inkscape:cy="16"
     inkscape:window-width="1920"
     inkscape:window-height="1017"
     inkscape:window-x="-8"
     inkscape:window-y="-8"
     inkscape:window-maximized="1"
     inkscape:current-layer="svg2" />
  <path
     style="fill:#aa0000;stroke-width:0.00153129"
     d="M 6.596319,25.879429 C 6.4883436,25.828384 6.3524526,25.735795 6.2943392,25.673678 6.0327657,25.39408 5.9542866,24.941147 6.1080918,24.598773 6.169897,24.461193 7.1190781,23.49004 10.396551,20.211043 L 14.605637,16 10.396551,11.788957 C 7.1190781,8.5099603 6.169897,7.5388073 6.1080918,7.401227 5.9486351,7.046272 6.0449934,6.5575325 6.3263223,6.2943392 6.6059198,6.0327657 7.0588524,5.9542866 7.401227,6.1080918 7.5388073,6.169897 8.5099603,7.1190781 11.788957,10.396551 L 16,14.605637 20.211043,10.396551 c 3.278997,-3.2774729 4.25015,-4.226654 4.38773,-4.2884592 0.354955,-0.1594567 0.843694,-0.063098 1.106888,0.2182305 0.261573,0.2795975 0.340052,0.7325301 0.186247,1.0749047 -0.0618,0.1375803 -1.010986,1.1087333 -4.288459,4.38773 L 17.394363,16 l 4.209086,4.211043 c 3.277473,3.278997 4.226654,4.25015 4.288459,4.38773 0.153805,0.342374 0.07533,0.795307 -0.186247,1.074905 -0.263194,0.281328 -0.751933,0.377687 -1.106888,0.21823 -0.13758,-0.0618 -1.108733,-1.010986 -4.38773,-4.288459 L 16,17.394363 11.788957,21.603449 c -3.2789967,3.277473 -4.2501497,4.226654 -4.38773,4.288459 -0.2457189,0.110385 -0.5551653,0.105587 -0.804908,-0.01248 z"
     id="path2" />
  <path
     style="fill:#800000;stroke-width:0.00153129"
     d="M 6.570723,25.837024 C 6.2116758,25.645971 6.041709,25.318101 6.0735461,24.877958 c 0.015278,-0.211222 0.03518,-0.255203 0.20926,-0.462439 C 6.3886127,24.28956 8.3125262,22.34454 10.558169,20.093252 L 14.641157,16 10.558169,11.906748 C 8.3125262,9.6554601 6.3886127,7.7104396 6.2828061,7.5844807 6.1087264,7.3772452 6.0888245,7.3332646 6.0735461,7.1220421 6.0488297,6.780342 6.1262586,6.5522106 6.3392346,6.3392346 6.5522106,6.1262586 6.780342,6.0488297 7.1220421,6.0735461 c 0.2112225,0.015278 0.2552031,0.03518 0.4624386,0.20926 0.1259589,0.1058066 2.0710146,2.0297552 4.3223463,4.2754409 l 4.093329,4.083066 4.093174,-4.083224 c 2.251245,-2.2457737 4.19623,-4.1697222 4.322189,-4.2754416 0.20717,-0.1738812 0.251283,-0.1938277 0.462439,-0.2091013 0.3417,-0.024716 0.569832,0.052713 0.782807,0.2656885 0.212976,0.212976 0.290405,0.4411074 0.265689,0.7828075 -0.01528,0.2112225 -0.03518,0.2552031 -0.20926,0.4624386 -0.105807,0.1259589 -2.029755,2.0710146 -4.275441,4.3223463 l -4.083066,4.093329 4.083224,4.093174 c 2.245774,2.251245 4.169722,4.19623 4.275441,4.322189 0.173882,0.20717 0.193828,0.251283 0.209102,0.462439 0.02472,0.3417 -0.05271,0.569832 -0.265689,0.782807 -0.212975,0.212976 -0.441107,0.290405 -0.782807,0.265689 -0.211222,-0.01528 -0.255203,-0.03518 -0.462439,-0.20926 -0.125959,-0.105807 -2.070979,-2.02972 -4.322267,-4.275363 L 16,17.358843 11.906748,21.441831 c -2.2512879,2.245643 -4.1974916,4.170567 -4.3248966,4.277609 -0.2289379,0.192347 -0.2351335,0.19474 -0.5300613,0.204698 -0.2539929,0.0086 -0.3256058,-0.0044 -0.4810671,-0.08711 z"
     id="path3" />
</svg>
