<?xml version="1.0" encoding="UTF-8" standalone="no"?>
<svg
   height="32px"
   id="Layer_1"
   style="enable-background:new 0 0 32 32;"
   version="1.1"
   viewBox="0 0 32 32"
   width="32px"
   xml:space="preserve"
   sodipodi:docname="menu-white.svg"
   inkscape:version="1.4.3 (0d15f75, 2025-12-25)"
   xmlns:inkscape="http://www.inkscape.org/namespaces/inkscape"
   xmlns:sodipodi="http://sodipodi.sourceforge.net/DTD/sodipodi-0.dtd"
   xmlns="http://www.w3.org/2000/svg"
   xmlns:svg="http://www.w3.org/2000/svg"><defs
     id="defs1" /><sodipodi:namedview
     id="namedview1"
     pagecolor="#505050"
     bordercolor="#eeeeee"
     borderopacity="1"
     inkscape:showpageshadow="0"
     inkscape:pageopacity="0"
     inkscape:pagecheckerboard="0"
     inkscape:deskcolor="#505050"
     inkscape:zoom="22.627417"
     inkscape:cx="4.3089319"
     inkscape:cy="14.517786"
     inkscape:window-width="1920"
     inkscape:window-height="1017"
     inkscape:window-x="-8"
     inkscape:window-y="-8"
     inkscape:window-maximized="1"
     inkscape:current-layer="Layer_1" /><path
     d="M4,10h24c1.104,0,2-0.896,2-2s-0.896-2-2-2H4C2.896,6,2,6.896,2,8S2.896,10,4,10z M28,14H4c-1.104,0-2,0.896-2,2  s0.896,2,2,2h24c1.104,0,2-0.896,2-2S29.104,14,28,14z M28,22H4c-1.104,0-2,0.896-2,2s0.896,2,2,2h24c1.104,0,2-0.896,2-2  S29.104,22,28,22z"
     id="path1" /><path
     style="fill:#808080;stroke-width:0.00172357"
     d="M 3.414528,9.8799671 C 2.4986657,9.5871892 1.8884576,8.6181798 2.0483468,7.7104738 2.182851,6.9468813 2.707842,6.3407041 3.4290682,6.1162332 c 0.2613147,-0.08133 0.6213329,-0.083729 12.5692228,-0.083729 11.94789,0 12.307908,0.0024 12.569222,0.083729 0.727725,0.2264934 1.252037,0.8309042 1.382927,1.5941963 0.09669,0.5638318 -0.09181,1.1649459 -0.508142,1.6204821 -0.255701,0.2797774 -0.50295,0.4354181 -0.876284,0.5516129 -0.259412,0.080738 -0.640793,0.08319 -12.582709,0.080885 C 4.1641908,9.9611287 3.6579015,9.9577675 3.414528,9.8799671 Z"
     id="path2" /><path
     style="fill:#808080;stroke-width:0.00172357"
     d="M 3.414528,17.879113 C 2.6989763,17.650369 2.1727365,17.032091 2.0468171,16.272192 c -0.1513213,-0.913195 0.46216,-1.870449 1.3822511,-2.156813 0.2613147,-0.08133 0.6213329,-0.08373 12.5692228,-0.08373 11.94789,0 12.307908,0.0024 12.569222,0.08373 0.721334,0.224504 1.252933,0.836128 1.382267,1.59035 0.09739,0.567946 -0.0899,1.167428 -0.507482,1.624328 -0.255701,0.279777 -0.50295,0.435418 -0.876284,0.551613 -0.259412,0.08074 -0.640793,0.08319 -12.582709,0.08088 C 4.1641908,17.96025 3.6579015,17.95695 3.414528,17.87911 Z"
     id="path3" /><path
     style="fill:#808080;stroke-width:0.00172357"
     d="M 3.3744996,25.861915 C 2.6737134,25.622568 2.1805336,25.036544 2.0483468,24.286108 1.8875705,23.373366 2.5051211,22.402089 3.4290682,22.114524 c 0.2613147,-0.08133 0.6213329,-0.08373 12.5692228,-0.08373 11.94789,0 12.307908,0.0024 12.569222,0.08373 0.721334,0.224504 1.252933,0.836128 1.382267,1.59035 0.14181,0.826973 -0.317439,1.68612 -1.107843,2.072511 L 28.505242,25.94198 16.086679,25.95209 3.6681164,25.9622 Z"
     id="path4" /></svg>
