<?xml version="1.0" encoding="UTF-8" standalone="no"?>
<svg
   height="32px"
   id="Layer_1"
   style="enable-background:new 0 0 32 32;"
   version="1.1"
   viewBox="0 0 32 32"
   width="32px"
   xml:space="preserve"
   sodipodi:docname="menu-dark.svg"
   inkscape:version="1.4.3 (0d15f75, 2025-12-25)"
   xmlns:inkscape="http://www.inkscape.org/namespaces/inkscape"
   xmlns:sodipodi="http://sodipodi.sourceforge.net/DTD/sodipodi-0.dtd"
   xmlns="http://www.w3.org/2000/svg"
   xmlns:svg="http://www.w3.org/2000/svg"><defs
     id="defs1" /><sodipodi:namedview
     id="namedview1"
     pagecolor="#505050"
     bordercolor="#eeeeee"
     borderopacity="1"
     inkscape:showpageshadow="0"
     inkscape:pageopacity="0"
     inkscape:pagecheckerboard="0"
     inkscape:deskcolor="#505050"
     inkscape:zoom="25.46875"
     inkscape:cx="16"
     inkscape:cy="16"
     inkscape:window-width="1920"
     inkscape:window-height="1017"
     inkscape:window-x="-8"
     inkscape:window-y="-8"
     inkscape:window-maximized="1"
     inkscape:current-layer="Layer_1" /><path
     d="M4,10h24c1.104,0,2-0.896,2-2s-0.896-2-2-2H4C2.896,6,2,6.896,2,8S2.896,10,4,10z M28,14H4c-1.104,0-2,0.896-2,2  s0.896,2,2,2h24c1.104,0,2-0.896,2-2S29.104,14,28,14z M28,22H4c-1.104,0-2,0.896-2,2s0.896,2,2,2h24c1.104,0,2-0.896,2-2  S29.104,22,28,22z"
     id="path1" /><path
     style="fill:#808080;stroke-width:0.0392638"
     d="M 3.6050913,9.9338118 C 2.842151,9.7673795 2.2572707,9.1987288 2.0812817,8.4522859 1.9210028,7.7724761 2.1099594,7.1183311 2.6125539,6.613086 2.8828226,6.341392 3.1600254,6.1796464 3.5192525,6.0840347 c 0.3172082,-0.084428 24.6442865,-0.084428 24.9614955,0 0.359226,0.095612 0.636429,0.2573573 0.906698,0.5290513 0.502057,0.5047051 0.690915,1.1619911 0.53001,1.8446095 -0.153682,0.6519769 -0.662495,1.2050081 -1.313775,1.427948 l -0.255215,0.087363 -12.250306,0.00688 C 5.9463582,9.9855906 3.8062672,9.9776978 3.6050913,9.9338118 Z"
     id="path2" /><path
     style="fill:#808080;stroke-width:0.0392638"
     d="M 3.4355828,17.889149 C 3.0788062,17.7738 2.8796315,17.65091 2.6075613,17.378263 1.8259892,16.595034 1.826093,15.404925 2.6078018,14.621465 2.8799352,14.348722 3.1178628,14.205203 3.4721571,14.100084 3.666301,14.042482 4.7893419,14.03681 16,14.03681 c 11.158213,0 12.334607,0.0059 12.527843,0.06264 0.353383,0.103799 0.652078,0.286765 0.89891,0.550629 0.746938,0.798479 0.732228,1.959955 -0.03456,2.728456 -0.272133,0.272743 -0.510061,0.416262 -0.864355,0.521381 -0.194214,0.05762 -1.314665,0.06309 -12.544785,0.06116 -11.7083459,-0.002 -12.3424374,-0.0056 -12.5474752,-0.07193 z"
     id="path3" /><path
     style="fill:#808080;stroke-width:0.0392638"
     d="M 3.5019904,25.91408 C 3.1592901,25.819869 2.8765201,25.652272 2.6125539,25.386914 1.7020345,24.471593 1.8694166,23.032284 2.9690337,22.321567 c 0.1257848,-0.0813 0.3484735,-0.180836 0.4948637,-0.221195 0.2573192,-0.07094 0.6752022,-0.07338 12.5753666,-0.07338 11.922464,0 12.315987,0.0023 12.525153,0.07345 1.016813,0.345845 1.609346,1.376542 1.354292,2.355759 -0.187901,0.721402 -0.729481,1.271193 -1.437961,1.459761 -0.303152,0.08069 -24.6850889,0.07885 -24.9787576,-0.0019 z"
     id="path4" /><path
     style="fill:#ffffff;stroke-width:0.0392638"
     d="M 3.6993837,9.9121683 C 2.964955,9.8264649 2.26562,9.17291 2.09955,8.4170633 2.0322715,8.1108537 2.0682165,7.5943898 2.1763801,7.3131573 2.3585866,6.8394081 2.8315344,6.3659624 3.3082494,6.1800967 l 0.2254929,-0.087917 4.4368098,-0.034771 c 4.8720669,-0.038182 19.7420509,-0.0053 20.2893129,0.044873 0.263683,0.024172 0.402119,0.060427 0.596919,0.1563266 0.460002,0.2264583 0.873171,0.7203539 1.019301,1.2184577 0.0765,0.2607619 0.08027,0.737593 0.008,1.0090839 C 29.73922,9.0302027 29.310274,9.532495 28.77199,9.7884017 l -0.305716,0.1453415 -12.250307,0.00475 C 9.4782822,9.9411023 3.8458269,9.9292572 3.6993837,9.9121683 Z"
     id="path5" /><path
     style="fill:#ffffff;stroke-width:0.0392638"
     d="M 3.5690313,17.884764 C 3.1696497,17.82621 2.7281743,17.533565 2.4317244,17.130867 1.8523477,16.343839 1.9384221,15.332633 2.6445884,14.630131 2.9336352,14.342584 3.2461695,14.168404 3.5657849,14.116735 3.8691724,14.06769 18.33727,14.031117 23.774233,14.065653 l 4.731288,0.03005 L 28.8,14.237501 c 0.356335,0.17158 0.609276,0.389356 0.8217,0.707463 0.425283,0.636866 0.425137,1.473425 -3.68e-4,2.110623 -0.290365,0.434825 -0.758605,0.757931 -1.204131,0.830903 -0.26958,0.04415 -24.5467358,0.04247 -24.8481697,-0.0017 z"
     id="path6" /><path
     style="fill:#ffffff;stroke-width:0.0392638"
     d="M 7.7721561,25.93805 3.4903243,25.91411 3.1906117,25.765964 C 2.6737761,25.510496 2.2733011,25.039144 2.1192985,24.505048 2.0703563,24.335312 2.056734,24.172185 2.0680257,23.891056 c 0.014289,-0.355762 0.027052,-0.406405 0.1804246,-0.715924 0.2028,-0.409267 0.5562333,-0.761803 0.9490209,-0.946611 0.2313058,-0.10883 0.3101002,-0.124009 0.768173,-0.147981 0.6736916,-0.03526 23.4984078,-0.03548 24.1108968,-2.35e-4 0.430383,0.02477 0.499156,0.03957 0.746013,0.160559 0.387546,0.189948 0.757871,0.56858 0.948534,0.96981 0.133155,0.280213 0.147862,0.344328 0.161198,0.702752 0.01269,0.341054 0.0016,0.431891 -0.08169,0.671492 -0.184916,0.531725 -0.520618,0.91974 -1.003629,1.160024 -0.202519,0.100748 -0.316705,0.128425 -0.628221,0.152273 -0.529292,0.04052 -15.246187,0.06991 -20.4465949,0.04084 z"
     id="path7" /><path
     style="fill:#d40000;stroke-width:0.0392638"
     d="M 3.6159725,9.8726089 C 3.0156746,9.7720528 2.3962063,9.2205756 2.1740043,8.5889071 2.1076993,8.4004172 2.0971169,8.2908154 2.1098407,7.9243635 2.1240881,7.5140323 2.1343233,7.4668642 2.2674605,7.1979831 2.4939591,6.7405515 2.931428,6.3454556 3.4159509,6.1607348 3.6075305,6.0876964 3.9080113,6.0858896 15.862577,6.0858896 c 13.316654,0 12.581518,-0.012431 13.017861,0.2201369 0.412269,0.2197374 0.834793,0.724918 0.960583,1.1484985 0.08559,0.2882096 0.07648,0.8633616 -0.01803,1.1380513 -0.168283,0.4891215 -0.576441,0.9338353 -1.084409,1.1815315 L 28.451468,9.9141104 16.130029,9.9094923 C 9.3532368,9.9069523 3.7219116,9.8903547 3.6159725,9.8726089 Z"
     id="path8" /><path
     style="fill:#d40000;stroke-width:0.0392638"
     d="M 3.4328088,17.83113 C 2.8046048,17.661204 2.2097257,16.965476 2.0936424,16.264935 1.9680617,15.50708 2.4485044,14.629809 3.1887511,14.265308 l 0.264697,-0.130339 2.8278771,-0.03129 c 1.5553327,-0.01721 7.1832148,-0.0251 12.5064048,-0.01753 l 9.678528,0.01376 0.312669,0.154955 c 0.790715,0.391869 1.231023,1.184023 1.117327,2.01017 -0.08108,0.589158 -0.518738,1.183719 -1.076622,1.462604 l -0.274847,0.137396 -12.466257,0.0073 c -9.7953468,0.0058 -12.5047078,-0.0031 -12.6457192,-0.04122 z"
     id="path9" /><path
     style="fill:#d40000;stroke-width:0.0392638"
     d="M 5.1239264,25.898271 3.4552147,25.874847 3.1760716,25.725644 C 2.7967604,25.522902 2.4495615,25.169003 2.2652107,24.797206 2.1260263,24.5165 2.1197238,24.485968 2.1071645,24.031562 L 2.0940836,23.558282 2.2613042,23.22454 C 2.4858508,22.776385 2.8075419,22.45227 3.22621,22.252363 L 3.5337423,22.105521 H 16.002036 28.470329 l 0.292443,0.145408 c 0.369529,0.183737 0.654709,0.434077 0.851836,0.747768 0.259184,0.412443 0.295556,0.550685 0.278246,1.057547 -0.01433,0.419492 -0.02352,0.461564 -0.16422,0.751507 -0.266225,0.548614 -0.778169,0.953978 -1.322592,1.047244 -0.28169,0.04826 -20.2792549,0.08543 -23.2821156,0.04328 z"
     id="path10" /><path
     style="fill:#ffffff;stroke-width:0.0392638"
     d="M 14.250719,9.8750921 3.5296588,9.8552147 3.221047,9.7026878 C 2.8290568,9.5089523 2.4730809,9.1587268 2.289445,8.7861347 2.167133,8.537967 2.1587425,8.4940748 2.1464414,8.0380585 L 2.1333736,7.5536184 2.2743723,7.2567152 C 2.4612003,6.8633086 2.8690268,6.4498068 3.2580767,6.2593217 L 3.5321042,6.1251534 H 15.802862 c 9.745902,0 12.335307,0.010287 12.584469,0.049994 0.386008,0.061516 0.645064,0.2077712 0.956499,0.5400126 0.438075,0.4673409 0.577257,0.8966079 0.508224,1.5674648 -0.05917,0.5749783 -0.490125,1.13884 -1.121439,1.4672859 L 28.415003,9.9141104 26.693391,9.90454 C 25.746505,9.89928 20.147302,9.886025 14.250719,9.8750921 Z"
     id="path11" /><path
     style="fill:#ffffff;stroke-width:0.0392638"
     d="M 3.4944785,17.809399 C 3.0642306,17.737704 2.5556779,17.29693 2.2940653,16.768973 2.1593459,16.497098 2.1298516,16.393967 2.1118953,16.131991 2.0615634,15.397663 2.4921108,14.669644 3.2000434,14.292025 l 0.2944351,-0.157056 12.4753495,-0.01218 12.475349,-0.01218 0.316993,0.164918 c 0.606587,0.315581 1.010714,0.856353 1.107564,1.482059 0.11551,0.746261 -0.327977,1.557885 -1.06203,1.943619 L 28.533302,17.8454 16.092418,17.8405 c -6.8424866,-0.0027 -12.5115591,-0.01671 -12.5979395,-0.0311 z"
     id="path12" /><path
     style="fill:#ffffff;stroke-width:0.0392638"
     d="M 4.1030675,25.856995 3.4159509,25.835583 3.1803681,25.700572 C 2.8171191,25.492397 2.4403724,25.094219 2.281017,24.750062 2.1604101,24.489589 2.1452252,24.416875 2.12577,24.006645 L 2.1042055,23.55194 2.2889126,23.22203 c 0.2460732,-0.439518 0.5689401,-0.759186 0.9591411,-0.949637 l 0.3016662,-0.14724 H 16.001993 28.454267 l 0.320106,0.166385 c 0.411712,0.214 0.739913,0.538327 0.93851,0.927433 0.146492,0.287016 0.14724,0.290932 0.14724,0.7707 v 0.482217 l -0.157659,0.314993 c -0.205493,0.410563 -0.498006,0.705263 -0.8947,0.901392 l -0.297951,0.14731 -2.9273,0.02431 c -3.544274,0.02943 -20.5155795,0.02714 -21.4794455,-0.0029 z"
     id="path13" /></svg>
